<svg xmlns="http://www.w3.org/2000/svg" viewBox="0 0 48 48" width="48" height="48">
  <rect width="48" height="48" rx="12" fill="#2A1B5E"/>
  <!-- Stylized R with architectural precision -->
  <path d="M14 12h11c5 0 8.5 3 8.5 7.5S30 27 25 27H20v9h-6V12zm6 10h5c2.2 0 3.8-1.1 3.8-2.5S27.2 17 25 17h-5v5z" fill="#FFFFFF"/>
  <path d="M24 25l8 11h-7l-5.5-8.5L24 25z" fill="#25D366"/>
  <!-- Sparkle 4-point star motif -->
  <path d="M37 9l1.3 4.7L43 15l-4.7 1.3L37 21l-1.3-4.7L31 15l4.7-1.3z" fill="#C9C2E8"/>
</svg>
